<svg width="626" height="164" viewBox="0 0 626 164" fill="none" xmlns="http://www.w3.org/2000/svg">
<path fill-rule="evenodd" clip-rule="evenodd" d="M611 29C618.732 29 625 22.732 625 15C625 7.26801 618.732 1 611 1C603.268 1 597 7.26801 597 15C597 22.732 603.268 29 611 29ZM611 30C619.284 30 626 23.2843 626 15C626 6.71573 619.284 0 611 0C602.813 0 596.157 6.55959 596.003 14.71V14H416H415V123.002L1 124H0.99756H0L1.72853e-06 164H1L1 125L416 124V123.987V15H596C596 23.2843 602.716 30 611 30Z" fill="#F4F4F4"/>
</svg>
