<svg width="174" height="116" viewBox="0 0 174 116" fill="none" xmlns="http://www.w3.org/2000/svg">
<path fill-rule="evenodd" clip-rule="evenodd" d="M5 9C7.20914 9 9 7.20914 9 5C9 2.79086 7.20914 1 5 1C2.79086 1 1 2.79086 1 5C1 7.20914 2.79086 9 5 9ZM5 10C7.76142 10 10 7.76142 10 5H86L86 105H70V106C70 100.477 65.5229 96 60 96C54.4772 96 50 100.477 50 106C50 111.523 54.4772 116 60 116C65.5229 116 70 111.523 70 106H86H87V105L87 5L164 5.00001C164 7.76142 166.239 10 169 10C171.761 10 174 7.76142 174 5C174 2.23858 171.761 0 169 0C166.239 0 164 2.23858 164 5.00001V4.00001L10 4V5C10 2.23858 7.76142 0 5 0C2.23858 0 0 2.23858 0 5C0 7.76142 2.23858 10 5 10ZM69 106C69 110.971 64.9706 115 60 115C55.0294 115 51 110.971 51 106C51 101.029 55.0294 97 60 97C64.9706 97 69 101.029 69 106ZM173 5C173 7.20914 171.209 9 169 9C166.791 9 165 7.20914 165 5C165 2.79086 166.791 1 169 1C171.209 1 173 2.79086 173 5Z" fill="#F4F4F4"/>
</svg>
