<svg width="215" height="171" viewBox="0 0 215 171" fill="none" xmlns="http://www.w3.org/2000/svg">
<path fill-rule="evenodd" clip-rule="evenodd" d="M165.052 0H165H0.942383V1H165V157V158H166H190V157H166V0H165.052ZM214 158.5C214 164.851 208.851 170 202.5 170C196.149 170 191 164.851 191 158.5C191 152.149 196.149 147 202.5 147C208.851 147 214 152.149 214 158.5ZM215 158.5C215 165.404 209.404 171 202.5 171C195.596 171 190 165.404 190 158.5C190 151.596 195.596 146 202.5 146C209.404 146 215 151.596 215 158.5Z" fill="#F4F4F4"/>
</svg>
