<svg width="252" height="147" viewBox="0 0 252 147" fill="none" xmlns="http://www.w3.org/2000/svg">
<path fill-rule="evenodd" clip-rule="evenodd" d="M150 19C154.971 19 159 14.9706 159 10C159 5.02944 154.971 1 150 1C145.029 1 141 5.02944 141 10C141 14.9706 145.029 19 150 19ZM150 20C155.523 20 160 15.5228 160 10C160 4.47715 155.523 0 150 0C144.477 0 140 4.47715 140 10C140 15.5228 144.477 20 150 20ZM26 147H27L27 55H150H151L250.526 55L251 73.0132L252 72.9868L251.5 53.9868L251 54L151 54V20H150V54L26 54V55V146H0V147H26Z" fill="#0061BF"/>
</svg>
