<svg width="277" height="155" viewBox="0 0 277 155" fill="none" xmlns="http://www.w3.org/2000/svg">
<path fill-rule="evenodd" clip-rule="evenodd" d="M150 19C154.971 19 159 14.9706 159 10C159 5.02944 154.971 1 150 1C145.029 1 141 5.02944 141 10C141 14.9706 145.029 19 150 19ZM160 10C160 15.1853 156.053 19.4489 151 19.9506V62L277 62V63V86H276V63H151H150H27L27 155H26H0V154H26V63V62L150 62V20C144.477 20 140 15.5228 140 10C140 4.47715 144.477 0 150 0C155.523 0 160 4.47715 160 10Z" fill="#0061BF"/>
</svg>
